<svg width="24" height="24" viewBox="0 0 24 24" fill="none" xmlns="http://www.w3.org/2000/svg">
<path d="M11.9906 14.998C11.7907 14.9984 11.5969 14.9287 11.443 14.8009L6.3091 10.5174C6.13437 10.372 6.02448 10.1631 6.00362 9.93652C5.98276 9.70999 6.05263 9.48444 6.19787 9.30948C6.34311 9.13453 6.55181 9.02451 6.77806 9.00363C7.00432 8.98274 7.22959 9.0527 7.40433 9.19811L11.9906 13.0361L16.5768 9.33519C16.6644 9.26402 16.7651 9.21088 16.8732 9.17881C16.9813 9.14675 17.0946 9.13638 17.2068 9.14833C17.3189 9.16027 17.4275 9.19428 17.5265 9.2484C17.6254 9.30252 17.7127 9.37568 17.7833 9.46369C17.8617 9.55178 17.921 9.65512 17.9576 9.76724C17.9942 9.87936 18.0073 9.99784 17.9961 10.1153C17.9848 10.2327 17.9495 10.3465 17.8923 10.4496C17.835 10.5527 17.7572 10.6429 17.6635 10.7145L12.5296 14.8523C12.3713 14.9599 12.1815 15.0111 11.9906 14.998V14.998Z" fill="#130A25"/>
</svg>
