<svg width="48" height="48" viewBox="0 0 48 48" fill="none" xmlns="http://www.w3.org/2000/svg">
<path d="M20.002 23.9906C20.0016 23.7907 20.0713 23.5969 20.1991 23.443L24.4826 18.3091C24.628 18.1344 24.8369 18.0245 25.0635 18.0036C25.29 17.9828 25.5156 18.0526 25.6905 18.1979C25.8655 18.3431 25.9755 18.5518 25.9964 18.7781C26.0173 19.0043 25.9473 19.2296 25.8019 19.4043L21.9639 23.9906L25.6648 28.5768C25.736 28.6644 25.7891 28.7651 25.8212 28.8732C25.8533 28.9813 25.8636 29.0946 25.8517 29.2068C25.8397 29.3189 25.8057 29.4275 25.7516 29.5265C25.6975 29.6254 25.6243 29.7127 25.5363 29.7833C25.4482 29.8617 25.3449 29.921 25.2328 29.9576C25.1206 29.9942 25.0022 30.0073 24.8847 29.9961C24.7673 29.9848 24.6535 29.9495 24.5504 29.8923C24.4473 29.835 24.3571 29.7572 24.2855 29.6635L20.1477 24.5296C20.0401 24.3713 19.9889 24.1815 20.002 23.9906Z" fill="white"/>
<rect x="47.5" y="47.5" width="47" height="47" rx="23.5" transform="rotate(-180 47.5 47.5)" stroke="white"/>
</svg>
