<svg width="48" height="48" viewBox="0 0 48 48" fill="none" xmlns="http://www.w3.org/2000/svg">
<path d="M27.998 24.0094C27.9984 24.2093 27.9287 24.4031 27.8009 24.557L23.5174 29.6909C23.372 29.8656 23.1631 29.9755 22.9365 29.9964C22.71 30.0172 22.4844 29.9474 22.3095 29.8021C22.1345 29.6569 22.0245 29.4482 22.0036 29.2219C21.9827 28.9957 22.0527 28.7704 22.1981 28.5957L26.0361 24.0094L22.3352 19.4232C22.264 19.3356 22.2109 19.2349 22.1788 19.1268C22.1467 19.0187 22.1364 18.9054 22.1483 18.7932C22.1603 18.6811 22.1943 18.5725 22.2484 18.4735C22.3025 18.3746 22.3757 18.2873 22.4637 18.2167C22.5518 18.1383 22.6551 18.079 22.7672 18.0424C22.8794 18.0058 22.9978 17.9927 23.1153 18.0039C23.2327 18.0152 23.3465 18.0505 23.4496 18.1077C23.5527 18.165 23.6429 18.2428 23.7145 18.3365L27.8523 23.4704C27.9599 23.6287 28.0111 23.8185 27.998 24.0094Z" fill="white"/>
<rect x="0.5" y="0.5" width="47" height="47" rx="23.5" stroke="white"/>
</svg>
