<svg width="20" height="20" viewBox="0 0 20 20" fill="none" xmlns="http://www.w3.org/2000/svg">
<path d="M14.3271 5.3102C14.5384 5.10904 14.8196 4.99782 15.1113 5.00003C15.403 5.00224 15.6825 5.1177 15.8907 5.32204C16.099 5.52638 16.2197 5.80362 16.2274 6.09527C16.2351 6.38691 16.1292 6.67015 15.9321 6.8852L9.94706 14.3702C9.84415 14.4811 9.71994 14.57 9.58186 14.6318C9.44378 14.6935 9.29467 14.7268 9.14344 14.7296C8.99221 14.7324 8.84197 14.7046 8.7017 14.6481C8.56143 14.5915 8.43401 14.5072 8.32706 14.4002L4.35806 10.4312C4.24753 10.3282 4.15888 10.204 4.09739 10.066C4.0359 9.92801 4.00284 9.77904 4.00018 9.62799C3.99751 9.47693 4.0253 9.32689 4.08188 9.18681C4.13846 9.04673 4.22268 8.91948 4.32951 8.81265C4.43633 8.70582 4.56358 8.6216 4.70367 8.56502C4.84375 8.50844 4.99379 8.48065 5.14485 8.48332C5.2959 8.48598 5.44487 8.51905 5.58287 8.58053C5.72087 8.64202 5.84507 8.73067 5.94806 8.8412L9.08906 11.9807L14.2986 5.3432C14.3079 5.33166 14.318 5.32064 14.3286 5.3102H14.3271Z" fill="#8041FF"/>
<rect x="0.5" y="0.5" width="19" height="19" rx="1.5" stroke="#8041FF"/>
</svg>
