<svg width="36" height="36" fill="none" xmlns="http://www.w3.org/2000/svg"><mask id="a" style="mask-type:alpha" maskUnits="userSpaceOnUse" x="0" y="0" width="36" height="36"><path fill="#D9D9D9" d="M0 0h36v36H0z"/></mask><g mask="url(#a)"><path d="M12 27h12v-3H12v3Zm0-6h12v-3H12v3ZM9 33a2.888 2.888 0 0 1-2.118-.88A2.89 2.89 0 0 1 6 30V6c0-.825.294-1.532.882-2.12A2.888 2.888 0 0 1 9 3h12l9 9v18c0 .825-.294 1.532-.88 2.12A2.893 2.893 0 0 1 27 33H9Zm10.5-19.5V6H9v24h18V13.5h-7.5Z" fill="#8041FF"/></g></svg>