<svg width="24" height="24" viewBox="0 0 24 24" fill="none" xmlns="http://www.w3.org/2000/svg">
<path d="M18.25 3.25C18.4312 3.25001 18.6063 3.31564 18.7429 3.43477C18.8795 3.55389 18.9684 3.71845 18.993 3.898L19 4V20C18.9999 20.19 18.9278 20.3729 18.798 20.5118C18.6683 20.6506 18.4907 20.7351 18.3011 20.748C18.1115 20.761 17.9241 20.7015 17.7767 20.5816C17.6293 20.4617 17.5329 20.2902 17.507 20.102L17.5 20V15H15.25C15.0688 15 14.8937 14.9344 14.7571 14.8152C14.6205 14.6961 14.5316 14.5316 14.507 14.352L14.5 14.25V7C14.5 6.00544 14.8951 5.05161 15.5983 4.34835C16.3016 3.64509 17.2554 3.25 18.25 3.25ZM12.25 3.25C12.4312 3.25001 12.6063 3.31564 12.7429 3.43477C12.8795 3.55389 12.9684 3.71845 12.993 3.898L13 4V8C13 9.953 11.6 11.578 9.75 11.93V20C9.74994 20.19 9.67776 20.3729 9.54803 20.5118C9.4183 20.6506 9.2407 20.7351 9.05112 20.748C8.86154 20.761 8.67411 20.7015 8.5267 20.5816C8.37929 20.4617 8.2829 20.2902 8.257 20.102L8.25 20V11.93C7.37077 11.7619 6.57328 11.3039 5.98502 10.6291C5.39676 9.95441 5.0517 9.10194 5.005 8.208L5 8V4C5.00006 3.80998 5.07224 3.62706 5.20197 3.48821C5.3317 3.34936 5.5093 3.26493 5.69888 3.25197C5.88846 3.23902 6.07589 3.29852 6.2233 3.41843C6.37071 3.53835 6.4671 3.70975 6.493 3.898L6.5 4V8C6.5 9.12 7.236 10.067 8.25 10.386V4C8.25006 3.80998 8.32224 3.62706 8.45197 3.48821C8.5817 3.34936 8.7593 3.26493 8.94888 3.25197C9.13846 3.23902 9.32589 3.29852 9.4733 3.41843C9.62071 3.53835 9.7171 3.70975 9.743 3.898L9.75 4V10.385C10.2272 10.2346 10.6483 9.9446 10.959 9.55243C11.2698 9.16026 11.4557 8.68395 11.493 8.185L11.5 8V4C11.5 3.80109 11.579 3.61032 11.7197 3.46967C11.8603 3.32902 12.0511 3.25 12.25 3.25ZM17.5 13.5V4.878C17.0889 5.02349 16.7289 5.2852 16.4637 5.63135C16.1985 5.97751 16.0395 6.39322 16.006 6.828L16 7V13.5H17.5V4.878V13.5Z" fill="#8041FF"/>
</svg>
