<svg width="20" height="16" viewBox="0 0 20 16" fill="none" xmlns="http://www.w3.org/2000/svg">
<path d="M0 4.8608V12.8C0 13.6487 0.351189 14.4626 0.976311 15.0627C1.60143 15.6629 2.44928 16 3.33333 16H16.6667C17.5507 16 18.3986 15.6629 19.0237 15.0627C19.6488 14.4626 20 13.6487 20 12.8V3.2C20 2.35131 19.6488 1.53737 19.0237 0.937258C18.3986 0.337142 17.5507 0 16.6667 0H3.33333C2.44928 0 1.60143 0.337142 0.976311 0.937258C0.351189 1.53737 0 2.35131 0 3.2V4.8608ZM3.33333 1.6H16.6667C17.1087 1.6 17.5326 1.76857 17.8452 2.06863C18.1577 2.36869 18.3333 2.77565 18.3333 3.2V4.384L10 8.6912L1.66667 4.384V3.2C1.66667 2.77565 1.84226 2.36869 2.15482 2.06863C2.46738 1.76857 2.89131 1.6 3.33333 1.6ZM1.66667 6.2016L9.605 10.304C9.7264 10.3667 9.86212 10.3996 10 10.3996C10.1379 10.3996 10.2736 10.3667 10.395 10.304L18.3333 6.2016V12.8C18.3333 13.2243 18.1577 13.6313 17.8452 13.9314C17.5326 14.2314 17.1087 14.4 16.6667 14.4H3.33333C2.89131 14.4 2.46738 14.2314 2.15482 13.9314C1.84226 13.6313 1.66667 13.2243 1.66667 12.8V6.2016Z" fill="#8041FF"/>
</svg>
