<svg width="24" height="24" viewBox="0 0 24 24" fill="none" xmlns="http://www.w3.org/2000/svg">
<path d="M17.83 12.74C17.55 12.17 16.76 11.69 15.71 12.5C14.2801 13.64 12.0001 13.64 12.0001 13.64C12.0001 13.64 9.72005 13.64 8.29005 12.5C7.24005 11.69 6.45005 12.17 6.17005 12.74C5.67005 13.74 6.23005 14.23 7.50005 15.04C8.59005 15.74 10.0801 16 11.0401 16.1L10.2401 16.9C9.10005 18.03 8.00005 19.12 7.25005 19.88C6.80005 20.34 6.80005 21.07 7.25005 21.5L7.39005 21.66C7.84005 22.11 8.58005 22.11 9.03005 21.66L12.0001 18.68C13.1501 19.81 14.2401 20.9 15 21.66C15.4501 22.11 16.18 22.11 16.64 21.66L16.7701 21.5C17.2301 21.07 17.2301 20.34 16.7701 19.88L13.7901 16.9L13.0001 16.09C13.9501 16 15.42 15.73 16.5 15.04C17.7701 14.23 18.33 13.74 17.83 12.74ZM12.0001 4.57C13.3801 4.57 14.5 5.69 14.5 7.06C14.5 8.44 13.3801 9.55 12.0001 9.55C10.6201 9.55 9.50005 8.44 9.50005 7.06C9.50005 5.69 10.6201 4.57 12.0001 4.57ZM12.0001 12.12C14.8001 12.12 17.06 9.86 17.06 7.06C17.06 4.27 14.8001 2 12.0001 2C9.20005 2 6.94005 4.27 6.94005 7.06C6.94005 9.86 9.20005 12.12 12.0001 12.12Z" fill="#8041FF"/>
</svg>
