<svg width="60" height="60" viewBox="0 0 60 60" fill="none" xmlns="http://www.w3.org/2000/svg">
<rect width="60" height="60" rx="30" fill="#F6F6F6" fill-opacity="0.4"/>
<path d="M28.1251 21.25C31.9221 21.25 35.0001 24.3282 35.0001 28.1254C35.0001 29.6858 34.4803 31.1249 33.6043 32.2788L38.4739 37.1542C38.8398 37.5205 38.8394 38.1141 38.4731 38.48C38.1068 38.8459 37.5132 38.8455 37.1473 38.4792L32.2783 33.6049C31.1245 34.4809 29.6855 35.0007 28.1251 35.0007C24.3281 35.0007 21.25 31.9225 21.25 28.1254C21.25 24.3282 24.3281 21.25 28.1251 21.25ZM28.1251 23.125C25.3636 23.125 23.125 25.3637 23.125 28.1254C23.125 30.887 25.3636 33.1257 28.1251 33.1257C30.8865 33.1257 33.1251 30.887 33.1251 28.1254C33.1251 25.3637 30.8865 23.125 28.1251 23.125Z" fill="#ffffff"/>
</svg>
