<svg width="21" height="24" viewBox="0 0 21 24" fill="none" xmlns="http://www.w3.org/2000/svg">
<path d="M15.5623 8.64215C17.0942 9.74656 18.9709 10.3964 20.9978 10.3964V6.46286C20.6142 6.46294 20.2316 6.42256 19.8563 6.34237V9.43861C17.8296 9.43861 15.9531 8.78888 14.4209 7.68455V15.7118C14.4209 19.7275 11.1931 22.9826 7.21164 22.9826C5.72607 22.9826 4.34524 22.5296 3.19824 21.7528C4.50739 23.1028 6.33308 23.9402 8.35282 23.9402C12.3346 23.9402 15.5625 20.6852 15.5625 16.6693V8.64215H15.5623ZM16.9705 4.6737C16.1876 3.81111 15.6735 2.69635 15.5623 1.46391V0.958008H14.4806C14.7529 2.52438 15.6817 3.86259 16.9705 4.6737H16.9705ZM5.71648 18.6713C5.27908 18.093 5.04263 17.3853 5.0437 16.6578C5.0437 14.8212 6.52008 13.3321 8.34158 13.3321C8.68098 13.3319 9.01839 13.3845 9.34194 13.4879V9.46642C8.96384 9.4142 8.5823 9.39194 8.20092 9.40013V12.5302C7.87723 12.4267 7.53964 12.3742 7.20008 12.3745C5.37865 12.3745 3.90235 13.8635 3.90235 15.7003C3.90235 16.9991 4.64026 18.1236 5.71648 18.6713Z" fill="#FF004F"/>
<path d="M14.4209 7.68446C15.9532 8.78879 17.8295 9.43853 19.8563 9.43853V6.34228C18.725 6.09922 17.7234 5.50303 16.9705 4.6737C15.6816 3.8625 14.7529 2.5243 14.4806 0.958008H11.6393V16.6692C11.6328 18.5008 10.159 19.9838 8.34141 19.9838C7.27044 19.9838 6.31888 19.469 5.71631 18.6712C4.64025 18.1236 3.90226 16.999 3.90226 15.7004C3.90226 13.8637 5.37856 12.3746 7.19999 12.3746C7.54897 12.3746 7.88532 12.4293 8.20083 12.5303V9.40022C4.2893 9.48173 1.14355 12.705 1.14355 16.6692C1.14355 18.6482 1.9269 20.4421 3.19832 21.7529C4.34532 22.5296 5.72607 22.9827 7.21171 22.9827C11.1932 22.9827 14.421 19.7274 14.421 15.7118V7.68455H14.4209V7.68446Z" fill="black"/>
<path d="M19.8561 6.34179V5.50477C18.8359 5.50633 17.8358 5.21819 16.9703 4.6733C17.7365 5.51927 18.7454 6.10265 19.8561 6.34196V6.34179ZM14.4803 0.957517C14.4544 0.807857 14.4345 0.657195 14.4206 0.505903V0H10.4974V15.7113C10.4912 17.5428 9.01738 19.0258 7.19973 19.0258C6.68444 19.0266 6.17619 18.905 5.71605 18.671C6.31862 19.4686 7.27018 19.9833 8.34115 19.9833C10.1586 19.9833 11.6326 18.5004 11.639 16.6688V0.9576H14.4803V0.957517ZM8.20082 9.39972V8.5085C7.87299 8.46328 7.54249 8.44066 7.21162 8.4408C3.22971 8.4408 0.00195312 11.696 0.00195312 15.7113C0.00195312 18.2287 1.2705 20.4473 3.19822 21.7524C1.9268 20.4416 1.14346 18.6476 1.14346 16.6687C1.14346 12.7046 4.28912 9.48132 8.20082 9.39981V9.39972Z" fill="#00F2EA"/>
</svg>
