<svg width="72" height="72" viewBox="0 0 72 72" fill="none" xmlns="http://www.w3.org/2000/svg">
<g clip-path="url(#clip0_27_2176)">
<path d="M30 62C30 66.418 28.418 70 24 70H10C2 70 2 42 10 42H24C28.418 42 30 45.582 30 50V62Z" fill="#553788"/>
<path d="M68 66H66V46H68C68.5304 46 69.0392 45.7893 69.4142 45.4142C69.7893 45.0391 70 44.5304 70 44C70 43.4696 69.7893 42.9609 69.4142 42.5858C69.0392 42.2107 68.5304 42 68 42H20C12 42 12 70 20 70H68C68.5304 70 69.0392 69.7893 69.4142 69.4142C69.7893 69.0391 70 68.5304 70 68C70 67.4696 69.7893 66.9609 69.4142 66.5858C69.0392 66.2107 68.5304 66 68 66Z" fill="#9266CC"/>
<path d="M68.344 66H22C18 66 18 46 22 46H68.344C70.552 46 70.552 66 68.344 66Z" fill="#CCD6DD"/>
<path d="M22.9999 50H69.6999C69.4299 47.65 68.9799 46 68.3439 46H21.9999C18.6979 46 18.1239 59.616 20.2739 64.376C19.4899 58.458 20.3979 50 22.9999 50Z" fill="#99AAB5"/>
<path d="M24 16C24 18.1217 23.1571 20.1566 21.6569 21.6569C20.1566 23.1571 18.1217 24 16 24H8C0 24 0 2 8 2H16C18.1217 2 20.1566 2.84285 21.6569 4.34315C23.1571 5.84344 24 7.87827 24 10V16Z" fill="#226699"/>
<path d="M62 20H60V6H62C62.5304 6 63.0392 5.78929 63.4142 5.41421C63.7893 5.03914 64 4.53043 64 4C64 3.46957 63.7893 2.96086 63.4142 2.58579C63.0392 2.21071 62.5304 2 62 2H14C6 2 6 24 14 24H62C62.5304 24 63.0392 23.7893 63.4142 23.4142C63.7893 23.0391 64 22.5304 64 22C64 21.4696 63.7893 20.9609 63.4142 20.5858C63.0392 20.2107 62.5304 20 62 20Z" fill="#55ACEE"/>
<path d="M62.344 20H16C12 20 12 6 16 6H62.344C64.552 6 64.552 20 62.344 20Z" fill="#CCD6DD"/>
<path d="M15.9999 10H63.8499C63.6219 7.75 63.1219 6 62.3439 6H15.9999C13.6139 6 12.6619 10.978 13.1239 15C13.4359 12.284 14.3859 10 15.9999 10Z" fill="#99AAB5"/>
<path d="M40 34C40 36.1217 39.1571 38.1566 37.6569 39.6569C36.1566 41.1571 34.1217 42 32 42H12C4 42 4 24 12 24H32C34.1217 24 36.1566 24.8429 37.6569 26.3431C39.1571 27.8434 40 29.8783 40 32V34Z" fill="#F4900C"/>
<path d="M70 38H68V28H70C70.5304 28 71.0391 27.7893 71.4142 27.4142C71.7893 27.0391 72 26.5304 72 26C72 25.4696 71.7893 24.9609 71.4142 24.5858C71.0391 24.2107 70.5304 24 70 24H30C22 24 22 42 30 42H70C70.5304 42 71.0391 41.7893 71.4142 41.4142C71.7893 41.0391 72 40.5304 72 40C72 39.4696 71.7893 38.9609 71.4142 38.5858C71.0391 38.2107 70.5304 38 70 38Z" fill="#FFAC33"/>
<path d="M70.344 38H32C28 38 28 28 32 28H70.344C72.552 28 72.552 38 70.344 38Z" fill="#CCD6DD"/>
<path d="M31.9998 32H71.9678C71.8378 29.876 71.2999 28 70.3438 28H31.9998C29.4518 28 28.5338 32.054 29.2338 35C29.6298 33.322 30.5478 32 31.9998 32Z" fill="#99AAB5"/>
</g>
<defs>
<clipPath id="clip0_27_2176">
<rect width="72" height="72" fill="white"/>
</clipPath>
</defs>
</svg>
