<svg width="24" height="24" viewBox="0 0 24 24" fill="none" xmlns="http://www.w3.org/2000/svg">
<path d="M11.3985 0.00398055C9.47248 0.0272306 5.33173 0.343731 3.01573 2.46848C1.29298 4.17548 0.691482 6.69923 0.620982 9.81998C0.562482 12.9295 0.491982 18.769 6.12073 20.359V22.7807C6.12073 22.7807 6.08548 23.7497 6.72598 23.9485C7.51498 24.1982 7.96423 23.4527 8.71423 22.6517L10.113 21.07C13.9642 21.3902 16.914 20.6522 17.2537 20.5427C18.0352 20.293 22.437 19.7305 23.1562 13.8902C23.8942 7.85873 22.797 4.05848 20.8162 2.33948H20.8042C20.2065 1.78898 17.8042 0.0384806 12.4372 0.0189806C12.4372 0.0189806 12.039 -0.00801945 11.3985 0.00323055V0.00398055ZM11.4645 1.69973C12.0112 1.69598 12.3435 1.71923 12.3435 1.71923C16.8862 1.73123 19.0545 3.09848 19.566 3.55898C21.234 4.98848 22.0935 8.41448 21.4642 13.45C20.8665 18.3325 17.2965 18.6415 16.6357 18.8522C16.3545 18.9422 13.7565 19.5827 10.4835 19.372C10.4835 19.372 8.04598 22.3135 7.28398 23.071C7.16323 23.2037 7.02223 23.2427 6.93223 23.2232C6.80323 23.1917 6.76423 23.032 6.77173 22.813L6.79498 18.7937C2.02123 17.4737 2.30248 12.493 2.35348 9.89123C2.41198 7.28948 2.90023 5.16098 4.35373 3.71948C6.31048 1.95023 9.82648 1.71173 11.463 1.69973H11.4645ZM11.8245 4.30073C11.7852 4.30033 11.7462 4.30772 11.7098 4.32246C11.6734 4.3372 11.6402 4.359 11.6123 4.38661C11.5843 4.41422 11.5621 4.44709 11.5469 4.48332C11.5317 4.51955 11.5238 4.55844 11.5237 4.59773C11.5237 4.76573 11.6602 4.89848 11.8245 4.89848C12.5681 4.88434 13.3072 5.01756 13.9991 5.29045C14.691 5.56334 15.322 5.97052 15.8557 6.48848C16.9455 7.54673 17.4765 8.96873 17.4967 10.828C17.4967 10.9922 17.6295 11.1287 17.7975 11.1287V11.1167C17.8767 11.1169 17.9527 11.0858 18.009 11.0302C18.0654 10.9746 18.0974 10.8989 18.0982 10.8197C18.1346 9.94459 17.9927 9.07119 17.6811 8.2526C17.3695 7.43402 16.8946 6.68735 16.2855 6.05798C15.0982 4.89773 13.5937 4.29998 11.8245 4.29998V4.30073ZM7.87123 4.98848C7.65894 4.95746 7.44243 5.00008 7.25773 5.10923H7.24198C6.81318 5.36058 6.42689 5.67827 6.09748 6.05048C5.82373 6.36698 5.67523 6.68723 5.63623 6.99548C5.61298 7.17923 5.62873 7.36298 5.68348 7.53848L5.70298 7.55048C6.01123 8.45648 6.41398 9.32798 6.90598 10.1485C7.53975 11.3012 8.3197 12.3673 9.22648 13.3202L9.25348 13.3592L9.29623 13.3907L9.32323 13.4222L9.35473 13.4492C10.3112 14.3587 11.3798 15.1423 12.5347 15.781C13.8547 16.4995 14.6557 16.8392 15.1365 16.9802V16.9877C15.2775 17.0305 15.4057 17.05 15.5347 17.05C15.9444 17.02 16.3323 16.8536 16.6365 16.5775C17.007 16.248 17.3211 15.8601 17.5665 15.4292V15.4217C17.7967 14.9882 17.7187 14.578 17.3865 14.3005C16.7211 13.7189 16.0016 13.2022 15.2377 12.7577C14.7262 12.4802 14.2065 12.6482 13.9957 12.9295L13.5465 13.4957C13.3162 13.777 12.8977 13.738 12.8977 13.738L12.8857 13.7455C9.76498 12.9482 8.93248 9.78848 8.93248 9.78848C8.93248 9.78848 8.89348 9.35873 9.18223 9.13973L9.74473 8.68673C10.014 8.46773 10.2015 7.94873 9.91273 7.43648C9.47128 6.6716 8.95581 5.95189 8.37373 5.28773C8.24648 5.13115 8.06796 5.02462 7.86973 4.98698L7.87123 4.98848ZM12.3435 5.87948C11.9452 5.87948 11.9452 6.48098 12.3472 6.48098C12.8424 6.48901 13.3312 6.59456 13.7856 6.79158C14.24 6.9886 14.6511 7.27324 14.9955 7.62923C15.3096 7.97574 15.551 8.38177 15.7053 8.82326C15.8597 9.26476 15.9238 9.73274 15.894 10.1995C15.8954 10.2785 15.9276 10.3538 15.9838 10.4093C16.04 10.4648 16.1157 10.4961 16.1947 10.4965L16.2067 10.5122C16.2863 10.5116 16.3625 10.4798 16.4187 10.4235C16.475 10.3672 16.5069 10.2911 16.5075 10.2115C16.5345 9.01973 16.164 8.01998 15.4372 7.21898C14.7067 6.41798 13.6875 5.96873 12.3862 5.87948H12.3435V5.87948ZM12.8362 7.49648C12.426 7.48448 12.4102 8.09798 12.8167 8.10998C13.8052 8.16098 14.2852 8.66048 14.3482 9.68798C14.3496 9.76598 14.3815 9.84033 14.437 9.89514C14.4925 9.94995 14.5672 9.98085 14.6452 9.98123H14.6572C14.6973 9.97951 14.7367 9.96982 14.773 9.95272C14.8093 9.93563 14.8419 9.91147 14.8688 9.88166C14.8956 9.85184 14.9163 9.81698 14.9296 9.77909C14.9428 9.7412 14.9484 9.70105 14.946 9.66098C14.8755 8.32148 14.145 7.56698 12.8482 7.49723H12.8362V7.49648Z" fill="#8041FF"/>
</svg>
