<svg width="24" height="24" viewBox="0 0 24 24" fill="none" xmlns="http://www.w3.org/2000/svg">
<path d="M11.3986 0.00398055C9.4726 0.0272306 5.33185 0.343731 3.01585 2.46848C1.2931 4.17548 0.691604 6.69923 0.621104 9.81998C0.562604 12.9295 0.492104 18.769 6.12085 20.359V22.7807C6.12085 22.7807 6.08561 23.7497 6.7261 23.9485C7.51511 24.1982 7.96435 23.4527 8.71436 22.6517L10.1131 21.07C13.9644 21.3902 16.9141 20.6522 17.2539 20.5427C18.0354 20.293 22.4371 19.7305 23.1564 13.8902C23.8944 7.85873 22.7971 4.05848 20.8164 2.33948H20.8044C20.2066 1.78898 17.8044 0.0384806 12.4374 0.0189806C12.4374 0.0189806 12.0391 -0.00801945 11.3986 0.00323055V0.00398055ZM11.4646 1.69973C12.0114 1.69598 12.3436 1.71923 12.3436 1.71923C16.8864 1.73123 19.0546 3.09848 19.5661 3.55898C21.2341 4.98848 22.0936 8.41448 21.4644 13.45C20.8666 18.3325 17.2966 18.6415 16.6359 18.8522C16.3546 18.9422 13.7566 19.5827 10.4836 19.372C10.4836 19.372 8.0461 22.3135 7.2841 23.071C7.16335 23.2037 7.02235 23.2427 6.93235 23.2232C6.80335 23.1917 6.76435 23.032 6.77185 22.813L6.7951 18.7937C2.02136 17.4737 2.3026 12.493 2.3536 9.89123C2.4121 7.28948 2.90035 5.16098 4.35385 3.71948C6.3106 1.95023 9.8266 1.71173 11.4631 1.69973H11.4646ZM11.8246 4.30073C11.7853 4.30033 11.7463 4.30772 11.7099 4.32246C11.6735 4.3372 11.6403 4.359 11.6124 4.38661C11.5844 4.41422 11.5622 4.44709 11.547 4.48332C11.5318 4.51955 11.524 4.55844 11.5239 4.59773C11.5239 4.76573 11.6604 4.89848 11.8246 4.89848C12.5682 4.88434 13.3073 5.01756 13.9992 5.29045C14.6911 5.56334 15.3221 5.97052 15.8559 6.48848C16.9456 7.54673 17.4766 8.96873 17.4969 10.828C17.4969 10.9922 17.6296 11.1287 17.7976 11.1287V11.1167C17.8768 11.1169 17.9528 11.0858 18.0092 11.0302C18.0655 10.9746 18.0976 10.8989 18.0984 10.8197C18.1348 9.94459 17.9929 9.07119 17.6812 8.2526C17.3696 7.43402 16.8948 6.68735 16.2856 6.05798C15.0984 4.89773 13.5939 4.29998 11.8246 4.29998V4.30073ZM7.87135 4.98848C7.65907 4.95746 7.44255 5.00008 7.25785 5.10923H7.2421C6.8133 5.36058 6.42702 5.67827 6.0976 6.05048C5.82385 6.36698 5.67535 6.68723 5.63635 6.99548C5.6131 7.17923 5.62885 7.36298 5.6836 7.53848L5.7031 7.55048C6.01135 8.45648 6.4141 9.32798 6.90611 10.1485C7.53987 11.3012 8.31982 12.3673 9.2266 13.3202L9.2536 13.3592L9.29636 13.3907L9.32335 13.4222L9.35485 13.4492C10.3113 14.3587 11.3799 15.1423 12.5349 15.781C13.8549 16.4995 14.6559 16.8392 15.1366 16.9802V16.9877C15.2776 17.0305 15.4059 17.05 15.5349 17.05C15.9446 17.02 16.3324 16.8536 16.6366 16.5775C17.0071 16.248 17.3213 15.8601 17.5666 15.4292V15.4217C17.7969 14.9882 17.7189 14.578 17.3866 14.3005C16.7212 13.7189 16.0017 13.2022 15.2379 12.7577C14.7264 12.4802 14.2066 12.6482 13.9959 12.9295L13.5466 13.4957C13.3164 13.777 12.8979 13.738 12.8979 13.738L12.8859 13.7455C9.7651 12.9482 8.9326 9.78848 8.9326 9.78848C8.9326 9.78848 8.8936 9.35873 9.18235 9.13973L9.74485 8.68673C10.0141 8.46773 10.2016 7.94873 9.91286 7.43648C9.47141 6.6716 8.95593 5.95189 8.37385 5.28773C8.2466 5.13115 8.06808 5.02462 7.86985 4.98698L7.87135 4.98848ZM12.3436 5.87948C11.9454 5.87948 11.9454 6.48098 12.3474 6.48098C12.8426 6.48901 13.3313 6.59456 13.7857 6.79158C14.2401 6.9886 14.6513 7.27324 14.9956 7.62923C15.3097 7.97574 15.5511 8.38177 15.7054 8.82326C15.8598 9.26476 15.9239 9.73274 15.8941 10.1995C15.8955 10.2785 15.9277 10.3538 15.9839 10.4093C16.0401 10.4648 16.1159 10.4961 16.1949 10.4965L16.2069 10.5122C16.2864 10.5116 16.3626 10.4798 16.4189 10.4235C16.4751 10.3672 16.507 10.2911 16.5076 10.2115C16.5346 9.01973 16.1641 8.01998 15.4374 7.21898C14.7069 6.41798 13.6876 5.96873 12.3864 5.87948H12.3436ZM12.8364 7.49648C12.4261 7.48448 12.4104 8.09798 12.8169 8.10998C13.8054 8.16098 14.2854 8.66048 14.3484 9.68798C14.3497 9.76597 14.3816 9.84033 14.4371 9.89514C14.4926 9.94995 14.5673 9.98085 14.6454 9.98123H14.6574C14.6975 9.97951 14.7368 9.96982 14.7731 9.95272C14.8095 9.93563 14.842 9.91147 14.8689 9.88166C14.8958 9.85184 14.9164 9.81698 14.9297 9.77909C14.943 9.7412 14.9485 9.70105 14.9461 9.66098C14.8756 8.32148 14.1451 7.56698 12.8484 7.49723H12.8364V7.49648Z" fill="#8041FF"/>
</svg>
