<svg width="26" height="18" viewBox="0 0 26 18" fill="none" xmlns="http://www.w3.org/2000/svg">
<g clip-path="url(#clip0_1228_2856)">
<path d="M25.4238 2.8075C25.2746 2.26486 24.9838 1.77014 24.5802 1.37263C24.1765 0.975112 23.6742 0.688661 23.1232 0.5418C21.106 0 12.9872 0 12.9872 0C12.9872 0 4.86806 0.0164 2.85082 0.5582C2.29979 0.70507 1.79746 0.991536 1.39382 1.38907C0.990192 1.78661 0.699351 2.28134 0.550264 2.824C-0.0599057 6.3538 -0.296602 11.7324 0.567019 15.121C0.716121 15.6636 1.00697 16.1584 1.4106 16.5559C1.81423 16.9534 2.31656 17.2398 2.86757 17.3867C4.88482 17.9285 13.0038 17.9285 13.0038 17.9285C13.0038 17.9285 21.1226 17.9285 23.1398 17.3867C23.6908 17.2399 24.1931 16.9534 24.5968 16.5559C25.0004 16.1584 25.2913 15.6637 25.4404 15.121C26.084 11.5862 26.2823 6.211 25.4238 2.8076V2.8075Z" fill="#FF0000"/>
<path d="M10.4023 12.8057L17.1375 8.96387L10.4023 5.12207V12.8057Z" fill="white"/>
</g>
<defs>
<clipPath id="clip0_1228_2856">
<rect width="26" height="18" fill="white"/>
</clipPath>
</defs>
</svg>
