<?xml version="1.0" standalone="no"?>
<!DOCTYPE svg PUBLIC "-//W3C//DTD SVG 20010904//EN"
 "http://www.w3.org/TR/2001/REC-SVG-20010904/DTD/svg10.dtd">
<svg version="1.0" xmlns="http://www.w3.org/2000/svg"
 width="240.000000pt" height="240.000000pt" viewBox="0 0 240.000000 240.000000"
 preserveAspectRatio="xMidYMid meet">
<metadata>
Created by potrace 1.14, written by Peter Selinger 2001-2017
</metadata>
<g transform="translate(0.000000,240.000000) scale(0.100000,-0.100000)"
fill="#000000" stroke="none">
<path d="M1040 2323 c-20 -8 -27 -18 -108 -148 -139 -222 -143 -232 -177 -439
-12 -77 -11 -106 5 -106 4 0 13 28 20 62 13 69 36 122 49 113 5 -2 3 -22 -4
-42 -7 -21 -16 -56 -19 -78 -3 -22 -10 -59 -15 -82 -9 -46 -4 -93 10 -93 7 0
29 63 29 85 0 32 55 185 67 185 17 0 18 7 -17 -127 -16 -63 -30 -128 -30 -143
0 -38 25 -46 38 -12 10 25 13 39 26 109 20 102 67 205 65 142 0 -13 -6 -50
-12 -81 -17 -81 -16 -153 2 -153 10 0 19 21 27 68 16 83 26 117 66 222 39 99
60 131 93 137 36 7 59 -14 101 -92 38 -71 59 -89 78 -70 22 22 -70 212 -144
298 -49 55 -67 94 -73 162 -4 40 -12 60 -28 73 -23 18 -26 19 -49 10z"/>
<path d="M1620 1795 c-52 -7 -105 -15 -118 -19 -35 -12 -21 -32 19 -27 78 9
152 4 147 -10 -2 -7 -34 -13 -76 -15 -85 -4 -182 -20 -195 -33 -15 -15 1 -30
26 -25 42 9 229 6 239 -4 17 -17 -4 -21 -137 -26 -94 -4 -132 -9 -143 -20 -30
-30 -4 -35 143 -29 130 5 145 4 145 -11 0 -10 -9 -16 -22 -17 -133 -4 -226
-30 -209 -58 7 -11 22 -12 73 -4 118 17 302 3 353 -26 52 -30 46 -65 -24 -152
-61 -74 -70 -92 -51 -104 29 -18 157 108 241 239 54 84 70 99 127 121 44 18
62 39 62 73 0 40 -26 52 -255 117 -144 42 -204 47 -345 30z"/>
<path d="M500 1494 c-41 -7 -96 -23 -122 -34 -68 -29 -126 -35 -178 -17 -33
11 -50 12 -67 4 -54 -24 -38 -83 58 -208 14 -19 51 -68 82 -111 31 -42 70 -89
87 -105 34 -32 217 -149 241 -155 34 -7 16 20 -37 57 -31 22 -62 48 -68 57
-19 31 2 31 41 0 108 -85 213 -135 213 -102 0 5 -19 22 -42 37 -45 29 -117 84
-156 119 -42 37 -5 40 46 3 26 -18 49 -36 52 -40 3 -3 34 -25 69 -48 48 -30
67 -38 77 -30 18 14 9 32 -27 53 -64 38 -189 138 -189 152 0 21 12 17 57 -15
88 -64 173 -95 173 -63 0 5 -35 32 -77 59 -93 61 -240 202 -249 238 -14 58 21
85 128 100 51 7 95 35 84 53 -9 16 -100 14 -196 -4z"/>
<path d="M1690 1120 c0 -12 11 -42 24 -69 48 -94 82 -212 56 -196 -10 6 -60
109 -60 124 0 19 -62 132 -76 138 -37 14 -31 -14 35 -165 39 -89 50 -132 33
-132 -5 0 -27 37 -50 83 -47 94 -79 134 -95 118 -7 -7 -2 -26 17 -63 61 -117
118 -301 111 -359 -5 -36 -27 -59 -56 -59 -10 0 -50 13 -89 29 -71 28 -110 31
-110 6 0 -20 31 -42 105 -75 91 -41 139 -57 195 -65 62 -9 122 -39 149 -76 36
-48 86 -55 114 -15 6 10 3 124 -8 216 -2 19 -6 64 -10 100 -4 36 -14 90 -22
120 -20 70 -114 259 -142 284 -29 26 -26 11 10 -69 17 -38 29 -78 27 -94 -4
-24 -6 -21 -27 24 -53 119 -87 181 -105 198 -24 22 -26 21 -26 -3z"/>
<path d="M737 733 c-19 -37 -42 -185 -40 -248 7 -154 5 -172 -27 -229 -52 -91
-25 -142 61 -118 55 16 321 123 349 141 70 45 230 201 230 225 0 15 -11 9 -52
-26 -55 -46 -89 -68 -107 -68 -20 0 -11 15 25 39 60 41 174 161 167 176 -6 17
-19 11 -65 -30 -86 -79 -179 -135 -178 -107 1 4 27 27 58 52 86 68 165 148
157 159 -12 21 -33 11 -101 -50 -157 -139 -220 -153 -85 -19 45 44 81 86 81
94 0 30 -21 25 -62 -15 -80 -77 -237 -186 -294 -203 -30 -9 -73 13 -80 39 -3
12 -2 56 3 98 13 106 -9 152 -40 90z"/>
</g>
</svg>
